<?xml version="1.0" encoding="UTF-8" standalone="no"?><!DOCTYPE svg PUBLIC "-//W3C//DTD SVG 1.1//EN" "http://www.w3.org/Graphics/SVG/1.1/DTD/svg11.dtd"><svg width="100%" height="100%" viewBox="0 0 2134 2134" version="1.1" xmlns="http://www.w3.org/2000/svg" xmlns:xlink="http://www.w3.org/1999/xlink" xml:space="preserve" xmlns:serif="http://www.serif.com/" style="fill-rule:evenodd;clip-rule:evenodd;stroke-linecap:round;stroke-linejoin:round;stroke-miterlimit:1.5;"><circle cx="1083.333" cy="1083.333" r="1083.333" style="fill:#1a1c1e;"/><circle cx="1083.333" cy="1083.333" r="1000" style="fill:#1a1c1e;"/><rect x="1019.05" y="508.663" width="803.175" height="494.371" style="fill:#d1e4ff;fill-rule:nonzero;"/><rect x="1134.833" y="624.458" width="571.592" height="262.792" style="fill:#1a1c1e;fill-rule:nonzero;"/><rect x="355.417" y="508.663" width="494.371" height="494.371" style="fill:#d1e4ff;fill-rule:nonzero;"/><rect x="471.217" y="624.458" width="262.792" height="262.792" style="fill:#1a1c1e;fill-rule:nonzero;"/><rect x="355.417" y="1172.296" width="725.975" height="494.371" style="fill:#bac7db;fill-rule:nonzero;"/><rect x="471.217" y="1288.075" width="494.392" height="262.792" style="fill:#1a1c1e;fill-rule:nonzero;"/><path d="M1517.158,1156.783c32.475,0 64.462,4.649 95.955,13.951c31.494,9.302 59.541,22.298 84.146,38.994l-87.099,57.238c-16.238,-7.156 -31.494,-12.281 -45.764,-15.383c-14.27,-3.102 -30.015,-4.649 -47.238,-4.649c-62.001,0 -115.393,21.46 -160.171,64.385c-44.778,42.929 -67.169,94.923 -67.169,155.985c0,20.033 2.584,38.518 7.751,55.448c5.167,16.935 12.426,33.746 21.775,50.442l395.631,0c11.317,-18.124 19.068,-35.535 23.249,-52.232c4.182,-16.697 6.272,-35.535 6.272,-56.524c0,-14.308 -1.598,-28.859 -4.798,-43.643c-3.2,-14.789 -8.244,-29.811 -15.133,-45.075l58.313,-82.999c17.716,24.325 31.247,51.275 40.596,80.852c9.349,29.573 14.024,59.384 14.024,89.437c0,28.621 -3.697,56.481 -11.087,83.585c-7.39,27.104 -18.214,52.903 -32.463,77.402c-8.367,12.88 -19.047,22.659 -32.042,29.335c-12.991,6.676 -26.666,10.016 -41.03,10.016l-407.441,0c-14.27,0 -28.294,-3.578 -42.071,-10.734c-13.777,-7.156 -24.112,-16.697 -31.001,-28.621c-13.284,-22.897 -23.866,-47.578 -31.74,-74.053c-7.874,-26.475 -11.81,-54.025 -11.81,-82.659c0,-42.436 8.384,-82.476 25.153,-120.11c16.765,-37.639 39.653,-70.607 68.665,-98.896c29.008,-28.294 62.94,-50.617 101.799,-66.969c38.858,-16.352 80.432,-24.529 124.721,-24.529l0.004,0.004Z" style="fill:#d3e1ff;fill-rule:nonzero;"/><path d="M1471.395,1510.238c11.572,11.448 26.522,17.054 44.846,16.816c18.324,-0.238 32.407,-6.795 42.249,-19.676l184.529,-259.008l-267.196,178.873c-13.284,9.54 -20.3,22.952 -21.035,40.239c-0.739,17.292 4.798,31.545 16.607,42.759l-0,-0.004Z" style="fill:#4285f4;fill-rule:nonzero;"/></svg>